<svg xmlns="http://www.w3.org/2000/svg" width="1200" height="660" viewBox="0 0 1200 660">
  <style>
    .mono { font-family: ui-monospace, SFMono-Regular, Menlo, Monaco, Consolas, "Liberation Mono", monospace; }
    .title { font-size: 26px; font-weight: 700; fill: #24292f; }
    .text { font-size: 20px; fill: #24292f; }
    .muted { font-size: 18px; fill: #57606a; }
    .accent { fill: #0969da; }
    .rule { stroke: #d0d7de; stroke-width: 1; }
  </style>

  <rect width="1200" height="660" rx="18" fill="#ffffff"/>
  <rect x="28" y="28" width="1144" height="604" rx="14" fill="#f6f8fa" stroke="#d0d7de"/>

  <circle cx="58" cy="57" r="7" fill="#ff5f56"/>
  <circle cx="82" cy="57" r="7" fill="#ffbd2e"/>
  <circle cx="106" cy="57" r="7" fill="#27c93f"/>
  <text x="145" y="65" class="mono muted">NoveraNasa / README.md</text>
  <line x1="28" y1="84" x2="1172" y2="84" class="rule"/>

  <g class="mono">
    <text x="70" y="130" class="title">NoveraNasa@github</text>
    <text x="70" y="160" class="muted">---------------------------</text>

    <text x="70" y="205" class="accent text">       _   _</text>
    <text x="70" y="232" class="accent text">      | \ | | ___  _   _  ___ _ __ __ _</text>
    <text x="70" y="259" class="accent text">      |  \| |/ _ \| | | |/ _ \ '__/ _` |</text>
    <text x="70" y="286" class="accent text">      | |\  | (_) | |_| |  __/ | | (_| |</text>
    <text x="70" y="313" class="accent text">      |_| \_|\___/ \__,_|\___|_|  \__,_|</text>

    <text x="70" y="365" class="text">MSc Data Science · Germany</text>
    <text x="70" y="397" class="muted">Machine Learning · Data Analysis · Research</text>
    <text x="70" y="429" class="muted">Python · R · Stata · SQL · Git · Jupyter</text>

    <text x="620" y="130" class="title">Profile</text>
    <text x="620" y="160" class="muted">---------------------------</text>

    <text x="620" y="202" class="muted">Name:</text>
    <text x="785" y="202" class="text">Qazi Novera Tansue Nasa</text>

    <text x="620" y="238" class="muted">Role:</text>
    <text x="785" y="238" class="text">Data Science Researcher</text>

    <text x="620" y="274" class="muted">Focus:</text>
    <text x="785" y="274" class="text">ML, LLMs, Causal Analysis</text>

    <text x="620" y="310" class="muted">Email:</text>
    <text x="785" y="310" class="text">nasa.novera@gmail.com</text>

    <text x="620" y="346" class="muted">LinkedIn:</text>
    <text x="785" y="346" class="text">in/novera-nasa-97607b1aa</text>

    <text x="620" y="400" class="title">GitHub stats</text>
    <text x="620" y="430" class="muted">---------------------------</text>

    <text x="620" y="470" class="muted">Repositories:</text>
    <text x="830" y="470" class="text">17</text>

    <text x="620" y="506" class="muted">Followers:</text>
    <text x="830" y="506" class="text">1</text>

    <text x="620" y="542" class="muted">Public stars:</text>
    <text x="830" y="542" class="text">6</text>

    <text x="620" y="578" class="muted">Updated:</text>
    <text x="830" y="578" class="text">2026-07-22</text>

    <text x="70" y="590" class="muted">“Every complex problem has one simple solution.”</text>
  </g>
</svg>
